HIERARCHY
ROOT Hips
{
	OFFSET 0.00000 0.00000 0.00000
	CHANNELS 6 Xposition Yposition Zposition Zrotation Yrotation Xrotation 
	JOINT LHipJoint
	{
		OFFSET 0 0 0
		CHANNELS 3 Zrotation Yrotation Xrotation
		JOINT LeftHip
		{
			OFFSET 1.62964 -1.40469 0.78906
			CHANNELS 3 Zrotation Yrotation Xrotation
			JOINT LeftKnee
			{
				OFFSET 2.29640 -6.30932 0.00000
				CHANNELS 3 Zrotation Yrotation Xrotation
				JOINT LeftAnkle
				{
					OFFSET 2.29451 -6.30412 0.00000
					CHANNELS 3 Zrotation Yrotation Xrotation
					JOINT LeftToe
					{
						OFFSET 0.03611 -0.09921 1.56387
						CHANNELS 3 Zrotation Yrotation Xrotation
						End Site
						{
							OFFSET 0.00000 -0.00000 0.80291
						}
					}
				}
			}
		}
	}
	JOINT RHipJoint
	{
		OFFSET 0 0 0
		CHANNELS 3 Zrotation Yrotation Xrotation
		JOINT RightHip
		{
			OFFSET -1.73712 -1.40469 0.78906
			CHANNELS 3 Zrotation Yrotation Xrotation
			JOINT RightKnee
			{
				OFFSET -2.28137 -6.26801 0.00000
				CHANNELS 3 Zrotation Yrotation Xrotation
				JOINT RightAnkle
				{
					OFFSET -2.28681 -6.28298 0.00000
					CHANNELS 3 Zrotation Yrotation Xrotation
					JOINT RightToe
					{
						OFFSET -0.15927 -0.43759 1.61103
						CHANNELS 3 Zrotation Yrotation Xrotation
						End Site
						{
							OFFSET -0.00000 -0.00000 0.84630
						}
					}
				}
			}
		}
	}
	JOINT lowerback
	{
		OFFSET 0 0 0
		CHANNELS 3 Zrotation Yrotation Xrotation
		JOINT Chest
		{
			OFFSET -0.04227 2.04338 -0.00225
			CHANNELS 3 Zrotation Yrotation Xrotation
			JOINT Chest2
			{
				OFFSET -0.02148 2.04482 -0.04273
				CHANNELS 3 Zrotation Yrotation Xrotation
				JOINT lowerneck
				{
					OFFSET 0 0 0
					CHANNELS 3 Zrotation Yrotation Xrotation
					JOINT Neck
					{
						OFFSET 0.09180 1.44629 0.19359
						CHANNELS 3 Zrotation Yrotation Xrotation
						JOINT Head
						{
							OFFSET 0.00887 1.40645 0.14750
							CHANNELS 3 Zrotation Yrotation Xrotation
							End Site
							{
								OFFSET -0.00669 1.50671 0.03707
							}
						}
					}
				}
				JOINT LeftCollar
				{
					OFFSET 0 0 0
					CHANNELS 3 Zrotation Yrotation Xrotation
					JOINT LeftShoulder
					{
						OFFSET 2.17674 1.86763 -0.06520
CHANNELS 3 Zrotation Xrotation Yrotation
						JOINT LeftElbow
						{
OFFSET 0 -4.657760 0.000000
CHANNELS 3 Zrotation Xrotation Yrotation
							JOINT LeftWrist
							{
OFFSET 0 -3.555390 0.000000
CHANNELS 3 Zrotation Xrotation Yrotation
								JOINT lhand
								{
									OFFSET 0 0 0
CHANNELS 3 Zrotation Xrotation Yrotation
									JOINT LFingers
									{
OFFSET 0 -0.707260 0.000000
CHANNELS 3 Zrotation Xrotation Yrotation
										End Site
										{
OFFSET 0 -0.570220 0.000000
										}
									}
								}
								JOINT LThumb
								{
OFFSET 0 0.000000 0.000000
CHANNELS 3 Zrotation Xrotation Yrotation
									End Site
									{
OFFSET 0 -0.578920 0.578920
									}
								}
							}
						}
					}
				}
				JOINT RightCollar
				{
					OFFSET 0 0 0
					CHANNELS 3 Zrotation Yrotation Xrotation
					JOINT RightShoulder
					{
						OFFSET -2.80694 1.55459 -0.32496
CHANNELS 3 Zrotation Xrotation Yrotation
						JOINT RightElbow
						{
OFFSET 0 -4.719250 -0.000000
CHANNELS 3 Zrotation Xrotation Yrotation
							JOINT RightWrist
							{
OFFSET 0 -3.569900 0.000000
CHANNELS 3 Zrotation Xrotation Yrotation
								JOINT rhand
								{
									OFFSET 0 0 0
CHANNELS 3 Zrotation Xrotation Yrotation
									JOINT RFingers
									{
OFFSET 0 -0.507760 0.000000
CHANNELS 3 Zrotation Xrotation Yrotation
										End Site
										{
OFFSET 0 -0.409370 0.000000
										}
									}
								}
								JOINT RThumb
								{
OFFSET 0 0.000000 0.000000
CHANNELS 3 Zrotation Xrotation Yrotation
									End Site
									{
OFFSET 0 -0.415620 0.415620
									}
								}
							}
						}
					}
				}
			}
		}
	}
}
MOTION
Frames: 5
Frame Time: 0.008333333333333333
-1.176000 17.995200 21.032500 175.413000 -0.942300 -155.335000 0.000000 0.000000 0.000000 -26.047800 -14.642500 -18.204600 0.146200 2.464500 6.791200 0.144400 -2.616200 -6.749600 1.856500 -8.560600 -24.430300 0.000000 0.000000 0.000000 14.958800 11.639400 -19.647000 -0.107200 -2.111500 5.813900 -1.001100 1.227300 -18.539900 -1.618200 8.020900 -22.777400 -10.604700 -3.995800 -22.271600 -0.731400 -2.598200 1.120600 4.290000 -2.041800 14.354200 -3.145800 -7.743300 -0.885800 3.198900 -9.963200 16.764300 1.021300 -4.528000 5.526700 0.000000 0.000000 0.000000 6.168400 -5.179000 -20.622400 15.119000 -24.311600 3.274800 22.925900 -18.964600 12.227800 0.000000 0.000000 0.000000 -7.125000 0.000000 0.000000 -2.985500 16.750300 -2.001100 0.000000 0.000000 0.000000 -0.162400 3.841200 12.851200 -22.973400 -34.059700 -7.123400 -12.795400 23.723200 57.051800 0.000000 0.000000 0.000000 7.125000 0.000000 -0.000000 83.243300 76.630700 -69.410700
-1.187229 17.987516 21.042112 176.434962 -1.452929 -154.095866 0.000000 0.000000 0.000000 -24.417293 -15.352116 -19.712664 0.155744 2.542629 7.007915 0.146761 -2.369573 -6.803542 1.615504 -8.011744 -22.751355 0.000000 0.000000 0.000000 16.059592 11.666669 -21.385052 -0.123981 -2.269706 6.251717 -0.984058 1.609301 -18.277338 -1.614460 8.011776 -22.750095 -9.163832 -3.750459 -23.564082 -0.636101 -2.584025 0.663529 3.558448 -1.932296 14.466495 -2.769994 -7.837012 -0.598305 3.142767 -10.072562 16.945445 0.949666 -4.545481 5.515927 0.000000 0.000000 0.000000 6.002307 -4.211856 -23.485507 14.495702 -23.438626 3.022653 36.112239 -11.457012 8.873496 0.000000 0.000000 0.000000 -7.125000 0.000000 0.000000 6.561881 19.151198 3.951403 0.000000 0.000000 0.000000 0.215669 4.528690 11.726333 -23.826319 -34.979798 -7.606883 8.656422 10.163226 54.211711 0.000000 0.000000 0.000000 7.125000 0.000000 0.000000 80.492694 68.708079 -57.226626
-1.200283 17.987871 21.067514 177.726763 -1.786404 -152.743107 0.000000 0.000000 0.000000 -22.283542 -16.110727 -21.624339 0.174913 2.694082 7.428288 0.150223 -2.020602 -6.897587 1.802934 -8.440942 -24.062830 0.000000 0.000000 0.000000 17.231466 12.520561 -23.308441 -0.151744 -2.510140 6.917714 -0.996599 1.540658 -18.414112 -1.810704 8.460050 -24.120476 -7.523407 -3.253991 -24.788211 -0.504768 -2.372328 0.066281 2.830974 -1.724134 14.337998 -2.398087 -7.978773 0.081080 3.212961 -10.253984 16.847594 0.934701 -4.599199 5.360957 0.000000 0.000000 0.000000 5.550893 -3.709777 -23.617596 13.995857 -22.725952 2.828410 37.807781 -0.759774 5.677616 0.000000 0.000000 0.000000 -7.125000 0.000000 0.000000 8.290026 23.041932 4.018351 0.000000 0.000000 0.000000 0.668243 5.418225 11.186370 -24.883481 -36.082281 -8.222165 29.941717 -4.497357 48.217558 0.000000 0.000000 0.000000 7.125000 0.000000 0.000000 82.053194 60.297452 -46.436223
-1.205891 17.993370 21.068629 178.274823 -2.016271 -152.656205 0.000000 0.000000 0.000000 -21.517895 -16.188291 -21.795376 0.176746 2.708261 7.467544 0.151382 -1.817188 -6.939998 1.894739 -8.642706 -24.684357 0.000000 0.000000 0.000000 17.838133 12.713279 -23.388915 -0.154721 -2.534656 6.985659 -0.977554 1.617213 -18.213513 -1.513633 7.768998 -22.014973 -7.076483 -2.995826 -24.736109 -0.356577 -2.202549 -0.140325 2.818382 -1.614257 14.028537 -2.396157 -7.982038 0.290526 3.260610 -10.235837 16.972901 0.957801 -4.573231 5.366785 0.000000 0.000000 0.000000 4.771936 -4.123606 -21.648463 13.329567 -21.768186 2.574221 24.833219 -1.600916 10.389954 0.000000 0.000000 0.000000 -7.125000 0.000000 0.000000 -1.564069 18.557818 -0.980697 0.000000 0.000000 0.000000 0.650798 6.301061 10.823397 -26.453174 -37.650820 -9.163773 42.943927 -11.062742 41.460897 0.000000 0.000000 0.000000 7.125000 0.000000 0.000000 81.147536 54.443553 -34.583064
-1.191053 17.996274 21.062064 178.352659 -2.209864 -152.979935 0.000000 0.000000 0.000000 -21.410874 -15.893560 -21.411338 0.172730 2.677227 7.381415 0.151969 -2.323865 -6.929108 1.772166 -8.367281 -23.839670 0.000000 0.000000 0.000000 18.020222 13.050497 -22.638155 -0.143077 -2.436926 6.714848 -0.984378 1.014582 -18.443371 -1.512006 7.765521 -22.004271 -7.289830 -3.085113 -24.766296 -0.231523 -2.230785 0.119870 3.069132 -1.649989 14.376116 -2.548547 -7.892091 0.124779 3.408961 -10.146617 16.827528 1.026174 -4.539972 5.361875 0.000000 0.000000 0.000000 4.689362 -4.117435 -21.795391 13.579963 -22.130927 2.667922 24.447719 -2.013935 9.743697 0.000000 0.000000 0.000000 -7.125000 0.000000 0.000000 -1.803566 19.300354 -1.106596 0.000000 0.000000 0.000000 0.483649 6.716815 12.552078 -28.311952 -39.398306 -10.322475 40.372956 -11.534340 43.146175 0.000000 0.000000 0.000000 7.125000 0.000000 0.000000 81.727140 55.697474 -37.481555
